<?xml version="1.0" encoding="iso-8859-1"?>
<!-- Uploaded to: SVG Repo, www.svgrepo.com, Generator: SVG Repo Mixer Tools -->
<svg version="1.1" id="Layer_1" xmlns="http://www.w3.org/2000/svg" xmlns:xlink="http://www.w3.org/1999/xlink" 
	 viewBox="0 0 511.999 511.999" xml:space="preserve">
<path style="fill:#ADDE52;" d="M85.575,238.567h32.787c48.978,0,88.681-39.703,88.681-88.681v-32.787h-32.787
	c-48.978,0-88.681,39.703-88.681,88.681V238.567z"/>
<path style="fill:#FFBA7A;" d="M448.811,252.607c0-18.401-15.752-32.996-34.076-31.315c-0.165,0.015-0.33,0.031-0.497,0.048
	l-60.519-0.019c-17.064-0.006-34.03,3.012-49.914,9.247c-0.096,0.038-0.193,0.075-0.289,0.113l-139.499,62.524
	c-15.035,5.454-22.8,22.063-17.347,37.097c0.972,2.679,2.301,5.126,3.909,7.311l-111.297-0.628
	c-15.993-0.069-29.015,12.837-29.085,28.83c-0.07,15.992,12.837,29.015,28.83,29.085l89.244-0.779
	c28.822-0.186,57.31-6.186,83.758-17.642l138.858-60.141c8.113-3.942,16.8-6.839,25.738-8.06h40.54
	c23.435,0,32.315-11.214,31.81-25.654L448.811,252.607z"/>
<rect x="392.556" y="202.187" style="fill:#94D1EA;" width="41.878" height="155.67"/>
<rect x="434.434" y="202.187" style="fill:#EAE8E8;" width="67.366" height="155.67"/>
<g>
	<path style="fill:#5E282D;" d="M85.575,248.766h32.787c54.523,0,98.88-44.357,98.88-98.88v-32.787
		c0-5.633-4.567-10.199-10.199-10.199h-32.787c-54.523,0-98.88,44.357-98.88,98.88v32.787
		C75.376,244.2,79.942,248.766,85.575,248.766z M174.256,127.297h22.588v22.588c0,43.275-35.208,78.482-78.482,78.482h-8.164
		l35.724-35.724c3.983-3.983,3.983-10.441,0-14.424c-3.984-3.983-10.44-3.983-14.425,0l-35.723,35.724v-8.165
		C95.774,162.504,130.981,127.297,174.256,127.297z"/>
	<path style="fill:#5E282D;" d="M164.632,169.709c2.611,0,5.22-0.995,7.212-2.987l4.123-4.123c3.983-3.983,3.983-10.441,0-14.425
		c-3.984-3.983-10.44-3.983-14.425,0l-4.123,4.122c-3.983,3.983-3.983,10.441,0,14.425
		C159.412,168.713,162.022,169.709,164.632,169.709z"/>
	<path style="fill:#5E282D;" d="M392.555,191.988c-5.632,0-10.199,4.566-10.199,10.199v8.949l-28.633-0.014c-0.021,0-0.04,0-0.06,0
		c-18.731,0-36.76,3.348-53.577,9.949l-0.29,0.113c-0.152,0.06-0.303,0.122-0.451,0.19l-139.18,62.382
		c-9.656,3.613-17.367,10.732-21.741,20.084c-3.475,7.431-4.517,15.575-3.083,23.487l-96.012-0.542c-0.058,0-0.113,0-0.172,0
		c-21.512,0-39.062,17.454-39.156,38.985c-0.094,21.59,17.395,39.233,38.985,39.329c0.016,0,0.032,0,0.048,0
		c0.029,0,0.058,0,0.086,0l89.222-0.778c30.363-0.196,59.885-6.414,87.746-18.482l138.858-60.141c0.136-0.059,0.27-0.12,0.404-0.186
		c7.433-3.612,14.832-5.976,22.001-7.034h5.008v39.384c0,5.633,4.567,10.199,10.199,10.199H501.8
		c5.632,0,10.199-4.566,10.199-10.199V202.187c0-5.633-4.567-10.199-10.199-10.199H392.555z M376.628,298.079
		c-0.462,0-0.923,0.032-1.381,0.094c-9.448,1.291-19.072,4.283-28.61,8.892l-138.66,60.055
		c-25.329,10.97-52.167,16.623-79.792,16.802L39.014,384.7c-10.314-0.079-18.661-8.518-18.617-18.842
		c0.045-10.314,8.452-18.676,18.746-18.676c0.027,0,0.055,0,0.082,0l106.966,0.604c7.265,7.149,17.135,11.269,27.458,11.269
		c3.761,0,7.584-0.547,11.36-1.691c0.402-0.122,0.795-0.268,1.178-0.439l83.614-37.124c5.149-2.286,7.469-8.312,5.183-13.461
		c-2.285-5.147-8.311-7.468-13.46-5.183L178.549,338c-9.182,2.488-18.774-2.336-22.292-11.188
		c-1.703-4.708-1.476-9.796,0.645-14.332c2.122-4.539,5.886-7.98,10.596-9.688c0.234-0.085,0.466-0.178,0.694-0.28l139.273-62.424
		l0.067-0.027c14.441-5.668,29.96-8.542,46.13-8.542c0.017,0,0.036,0,0.053,0l28.642,0.015v66.545H376.628z M402.755,212.386h21.48
		v135.275h-21.48V212.386z M491.601,347.662h-46.969V212.386h46.969V347.662z"/>
</g>
</svg>